<?xml version="1.0" encoding="utf-8"?>
<!-- Generator: Adobe Illustrator 22.1.0, SVG Export Plug-In . SVG Version: 6.00 Build 0)  -->
<svg version="1.1" id="Layer_1" xmlns="http://www.w3.org/2000/svg" xmlns:xlink="http://www.w3.org/1999/xlink" x="0px" y="0px"
	 viewBox="0 0 799 211.8" style="enable-background:new 0 0 799 211.8;" xml:space="preserve">
<style type="text/css">
	.st0{fill:#FFFFFF;}
</style>
<g>
	<g>
		<path class="st0" d="M54.4,185.9c-18.9,0-34.3-15.4-34.3-34.3V34.1h34.3c18.9,0,34.3,15.4,34.3,34.3c0,3.6-2.9,6.5-6.5,6.5
			c-3.6,0-6.5-2.9-6.5-6.5c0-11.7-9.5-21.2-21.2-21.2H33.1v104.5c0,11.7,9.5,21.2,21.2,21.2s21.2-9.5,21.2-21.2
			c0-3.6,2.9-6.5,6.5-6.5c3.6,0,6.5,2.9,6.5,6.5C88.7,170.6,73.3,185.9,54.4,185.9z"/>
		<path class="st0" d="M54.4,185.4c-18.6,0-33.7-15.1-33.7-33.7v-117h33.7c18.6,0,33.7,15.1,33.7,33.7c0,3.3-2.7,5.9-5.9,5.9
			c-3.3,0-5.9-2.7-5.9-5.9c0-12-9.8-21.8-21.8-21.8H32.6v105.1c0,12,9.8,21.8,21.8,21.8s21.8-9.8,21.8-21.8c0-3.3,2.7-5.9,5.9-5.9
			c3.3,0,5.9,2.7,5.9,5.9C88.1,170.2,73,185.4,54.4,185.4z"/>
	</g>
	<g>
		<path class="st0" d="M138.6,185.9c-17.8,0-32.3-14.5-32.3-32.3V66.4c0-17.8,14.5-32.3,32.3-32.3h4c17.8,0,32.3,14.5,32.3,32.3
			v87.3c0,17.8-14.5,32.3-32.3,32.3H138.6z M138.6,47.1c-10.6,0-19.2,8.6-19.2,19.2v87.3c0,10.6,8.6,19.2,19.2,19.2h4
			c10.6,0,19.2-8.6,19.2-19.2V66.4c0-10.6-8.6-19.2-19.2-19.2H138.6z"/>
		<path class="st0" d="M142.6,185.4h-4c-17.5,0-31.7-14.2-31.7-31.7V66.4c0-17.5,14.2-31.7,31.7-31.7h4c17.5,0,31.7,14.2,31.7,31.7
			v87.3C174.3,171.1,160.1,185.4,142.6,185.4z M138.6,46.6c-10.9,0-19.8,8.9-19.8,19.8v87.3c0,10.9,8.9,19.8,19.8,19.8h4
			c10.9,0,19.8-8.9,19.8-19.8V66.4c0-10.9-8.9-19.8-19.8-19.8H138.6z"/>
	</g>
	<g>
		<path class="st0" d="M513.3,187c-2.8,0-5.3-1.8-6.2-4.4l-30.6-91.8h9c11.7,0,21.2-9.5,21.2-21.2v-2.1c0-11.7-9.5-21.2-21.2-21.2
			h-21.2v134.4c0,3.6-2.9,6.5-6.5,6.5s-6.5-2.9-6.5-6.5V33.1h34.3c18.9,0,34.3,15.4,34.3,34.3v2.1c0,15.7-10.5,29.2-25.6,33.2
			l25.3,75.8c0.5,1.7,0.4,3.4-0.4,5c-0.8,1.6-2.1,2.7-3.8,3.3C514.7,186.9,514,187,513.3,187z"/>
		<path class="st0" d="M513.3,186.4c-2.5,0-4.8-1.6-5.6-4.1l-30.4-91.1h8.2c12,0,21.8-9.8,21.8-21.8v-2.1c0-12-9.8-21.8-21.8-21.8
			h-21.8v135c0,3.3-2.7,5.9-5.9,5.9s-5.9-2.7-5.9-5.9V33.6h33.7c18.6,0,33.7,15.1,33.7,33.7v2.1c0,15.9-11,29.2-25.8,32.8l25.5,76.4
			c1,3.1-0.6,6.5-3.8,7.5C514.5,186.3,513.9,186.4,513.3,186.4z"/>
	</g>
	<g>
		<path class="st0" d="M397.3,185.9c-17.8,0-32.3-14.5-32.3-32.3V66.4c0-17.8,14.5-32.3,32.3-32.3h4c17.8,0,32.3,14.5,32.3,32.3
			v87.3c0,17.8-14.5,32.3-32.3,32.3H397.3z M397.3,47.1c-10.6,0-19.2,8.6-19.2,19.2v87.3c0,10.6,8.6,19.2,19.2,19.2h4
			c10.6,0,19.2-8.6,19.2-19.2V66.4c0-10.6-8.6-19.2-19.2-19.2H397.3z"/>
		<path class="st0" d="M401.3,185.4h-4c-17.5,0-31.7-14.2-31.7-31.7V66.4c0-17.5,14.2-31.7,31.7-31.7h4c17.5,0,31.7,14.2,31.7,31.7
			v87.3C433,171.1,418.8,185.4,401.3,185.4z M397.3,46.6c-10.9,0-19.8,8.9-19.8,19.8v87.3c0,10.9,8.9,19.8,19.8,19.8h4
			c10.9,0,19.8-8.9,19.8-19.8V66.4c0-10.9-8.9-19.8-19.8-19.8H397.3z"/>
	</g>
	<g>
		<g>
			<path class="st0" d="M254.6,185.9c-3.6,0-6.5-2.9-6.5-6.5v-111c0-11.7-9.5-21.2-21.2-21.2h-21.2v132.3c0,3.6-2.9,6.5-6.5,6.5
				s-6.5-2.9-6.5-6.5V34.1h34.3c18.9,0,34.3,15.4,34.3,34.3v111C261.1,183,258.2,185.9,254.6,185.9z"/>
			<path class="st0" d="M254.6,185.4c-3.3,0-5.9-2.7-5.9-5.9v-111c0-12-9.8-21.8-21.8-21.8H205v132.8c0,3.3-2.7,5.9-5.9,5.9
				s-5.9-2.7-5.9-5.9V34.7h33.7c18.6,0,33.7,15.1,33.7,33.7v111C260.5,182.7,257.9,185.4,254.6,185.4z"/>
		</g>
		<g>
			<path class="st0" d="M226.8,185.9c-3.6,0-6.5-2.9-6.5-6.5V42.8c0-3.6,2.9-6.5,6.5-6.5c3.6,0,6.5,2.9,6.5,6.5v136.6
				C233.4,183,230.4,185.9,226.8,185.9z"/>
			<path class="st0" d="M226.8,185.4c-3.3,0-5.9-2.7-5.9-5.9V42.8c0-3.3,2.7-5.9,5.9-5.9s5.9,2.7,5.9,5.9v136.6
				C232.8,182.7,230.1,185.4,226.8,185.4z"/>
		</g>
	</g>
	<g>
		<g>
			<path class="st0" d="M285.3,185.9c-3.6,0-6.5-2.9-6.5-6.5V34.1h34.3c18.9,0,34.3,15.4,34.3,34.3c0,3.6-2.9,6.5-6.5,6.5
				c-3.6,0-6.5-2.9-6.5-6.5c0-11.7-9.5-21.2-21.2-21.2h-21.2v132.3C291.8,183,288.9,185.9,285.3,185.9z"/>
			<path class="st0" d="M285.3,185.4c-3.3,0-5.9-2.7-5.9-5.9V34.7h33.7c18.6,0,33.7,15.1,33.7,33.7c0,3.3-2.7,5.9-5.9,5.9
				s-5.9-2.7-5.9-5.9c0-12-9.8-21.8-21.8-21.8h-21.8v132.8C291.3,182.7,288.6,185.4,285.3,185.4z"/>
		</g>
		<g>
			<path class="st0" d="M288.6,116.5c-3.6,0-6.5-2.9-6.5-6.5s2.9-6.5,6.5-6.5h52.2c3.6,0,6.5,2.9,6.5,6.5s-2.9,6.5-6.5,6.5H288.6z"
				/>
			<path class="st0" d="M340.8,116h-52.2c-3.3,0-5.9-2.7-5.9-5.9c0-3.3,2.7-5.9,5.9-5.9h52.2c3.3,0,5.9,2.7,5.9,5.9
				C346.8,113.3,344.1,116,340.8,116z"/>
		</g>
	</g>
	<g>
		<g>
			<path class="st0" d="M544,47.1c-3.6,0-6.5-2.9-6.5-6.5s2.9-6.5,6.5-6.5h55.5c3.6,0,6.5,2.9,6.5,6.5s-2.9,6.5-6.5,6.5H544z"/>
			<path class="st0" d="M599.5,46.6H544c-3.3,0-5.9-2.7-5.9-5.9c0-3.3,2.7-5.9,5.9-5.9h55.5c3.3,0,5.9,2.7,5.9,5.9
				C605.5,43.9,602.8,46.6,599.5,46.6z"/>
		</g>
		<g>
			<path class="st0" d="M571.8,185.9c-3.6,0-6.5-2.9-6.5-6.5V40.6c0-3.6,2.9-6.5,6.5-6.5c3.6,0,6.5,2.9,6.5,6.5v138.8
				C578.3,183,575.4,185.9,571.8,185.9z"/>
			<path class="st0" d="M571.8,185.4c-3.3,0-5.9-2.7-5.9-5.9V40.6c0-3.3,2.7-5.9,5.9-5.9c3.3,0,5.9,2.7,5.9,5.9v138.8
				C577.7,182.7,575,185.4,571.8,185.4z"/>
		</g>
	</g>
	<g>
		<g>
			<path class="st0" d="M658,185.9c-18.9,0-34.3-15.4-34.3-34.3V34.1H658c18.9,0,34.3,15.4,34.3,34.3c0,3.6-2.9,6.5-6.5,6.5
				s-6.5-2.9-6.5-6.5c0-11.7-9.5-21.2-21.2-21.2h-21.2v104.5c0,11.7,9.5,21.2,21.2,21.2c11.7,0,21.2-9.5,21.2-21.2
				c0-3.6,2.9-6.5,6.5-6.5s6.5,2.9,6.5,6.5C692.3,170.6,676.9,185.9,658,185.9z"/>
			<path class="st0" d="M658,185.4c-18.6,0-33.7-15.1-33.7-33.7v-117H658c18.6,0,33.7,15.1,33.7,33.7c0,3.3-2.7,5.9-5.9,5.9
				c-3.3,0-5.9-2.7-5.9-5.9c0-12-9.8-21.8-21.8-21.8h-21.8v105.1c0,12,9.8,21.8,21.8,21.8s21.8-9.8,21.8-21.8c0-3.3,2.7-5.9,5.9-5.9
				c3.3,0,5.9,2.7,5.9,5.9C691.7,170.2,676.6,185.4,658,185.4z"/>
		</g>
		<g>
			<path class="st0" d="M635.2,116.5c-3.6,0-6.5-2.9-6.5-6.5s2.9-6.5,6.5-6.5h38.4c3.6,0,6.5,2.9,6.5,6.5s-2.9,6.5-6.5,6.5H635.2z"
				/>
			<path class="st0" d="M673.6,116h-38.4c-3.3,0-5.9-2.7-5.9-5.9c0-3.3,2.7-5.9,5.9-5.9h38.4c3.3,0,5.9,2.7,5.9,5.9
				C679.5,113.3,676.9,116,673.6,116z"/>
		</g>
	</g>
	<g>
		<g>
			<path class="st0" d="M772,185.9c-3.6,0-6.5-2.9-6.5-6.5v-111c0-11.7-9.5-21.2-21.2-21.2H723v132.3c0,3.6-2.9,6.5-6.5,6.5
				c-3.6,0-6.5-2.9-6.5-6.5V34.1h34.3c18.9,0,34.3,15.4,34.3,34.3v111C778.5,183,775.6,185.9,772,185.9z"/>
			<path class="st0" d="M772,185.4c-3.3,0-5.9-2.7-5.9-5.9v-111c0-12-9.8-21.8-21.8-21.8h-21.8v132.8c0,3.3-2.7,5.9-5.9,5.9
				c-3.3,0-5.9-2.7-5.9-5.9V34.7h33.7c18.6,0,33.7,15.1,33.7,33.7v111C777.9,182.7,775.3,185.4,772,185.4z"/>
		</g>
		<g>
			<path class="st0" d="M719.4,116.5c-3.6,0-6.5-2.9-6.5-6.5s2.9-6.5,6.5-6.5h51.2c3.6,0,6.5,2.9,6.5,6.5s-2.9,6.5-6.5,6.5H719.4z"
				/>
			<path class="st0" d="M770.6,116h-51.2c-3.3,0-5.9-2.7-5.9-5.9c0-3.3,2.7-5.9,5.9-5.9h51.2c3.3,0,5.9,2.7,5.9,5.9
				C776.6,113.3,773.9,116,770.6,116z"/>
		</g>
	</g>
</g>
</svg>
