<svg id="Layer_1" data-name="Layer 1" xmlns="http://www.w3.org/2000/svg" viewBox="0 0 85.64 118.25"><defs><style>.cls-1{fill:#5e6946;}.cls-2{fill:#fff;}.cls-3{fill:#b6be5f;}.cls-4{fill:#a0bb77;}.cls-5{fill:#ffe2a9;}.cls-6{fill:#fbef9f;}.cls-7{fill:#cada7c;}</style></defs><title>logo</title><path class="cls-1" d="M8,120.16a3.84,3.84,0,0,1-3.83-3.85h0V103.73H8a3.83,3.83,0,0,1,3.84,3.82h0a.91.91,0,0,1-1.82,0,2,2,0,0,0-2-2H6V116.3a2,2,0,0,0,4,0,.91.91,0,0,1,.8-1h0a.91.91,0,0,1,1,.81h0v.18A3.83,3.83,0,0,1,8,120.16Z" transform="translate(-1.74 -2.05)"/><path class="cls-1" d="M8,119.88a3.56,3.56,0,0,1-3.55-3.57h0V104H8a3.56,3.56,0,0,1,3.55,3.55.63.63,0,0,1-.63.63.63.63,0,0,1-.63-.63A2.3,2.3,0,0,0,8,105.3H5.67v11a2.3,2.3,0,0,0,4.59,0,.63.63,0,0,1,.63-.63.63.63,0,0,1,.63.63A3.56,3.56,0,0,1,8,119.88Z" transform="translate(-1.74 -2.05)"/><path class="cls-1" d="M16.83,120.16a3.64,3.64,0,0,1-3.62-3.62v-9.19a3.64,3.64,0,0,1,3.62-3.62h.43a3.63,3.63,0,0,1,3.62,3.62v9.19a3.62,3.62,0,0,1-3.62,3.62Zm0-14.61a1.8,1.8,0,0,0-1.79,1.8v9.19a1.8,1.8,0,0,0,1.79,1.8h.43a1.8,1.8,0,0,0,1.8-1.8v-9.19a1.81,1.81,0,0,0-1.8-1.8Z" transform="translate(-1.74 -2.05)"/><path class="cls-1" d="M17.26,119.88h-.43a3.34,3.34,0,0,1-3.33-3.34v-9.19A3.34,3.34,0,0,1,16.83,104h.43a3.34,3.34,0,0,1,3.33,3.34v9.19A3.33,3.33,0,0,1,17.26,119.88Zm-.43-14.58a2.09,2.09,0,0,0-2.08,2.09v9.19a2.08,2.08,0,0,0,2.08,2.08h.43a2.08,2.08,0,0,0,2.08-2.08h0v-9.2a2.08,2.08,0,0,0-2.08-2.08h-.43Z" transform="translate(-1.74 -2.05)"/><path class="cls-1" d="M56.28,120.3a.91.91,0,0,1-.86-.62l-3.32-10h1.27a2,2,0,0,0,2-2v-.22a2,2,0,0,0-2-2h-2v13.93a.91.91,0,0,1-1,.83,1,1,0,0,1-.83-.83V103.6h3.84a3.83,3.83,0,0,1,3.84,3.84h0v.22a3.82,3.82,0,0,1-2.64,3.64l2.56,7.76a.91.91,0,0,1-.57,1.15h0A.66.66,0,0,1,56.28,120.3Z" transform="translate(-1.74 -2.05)"/><path class="cls-1" d="M56.28,120a.63.63,0,0,1-.59-.43L52.49,110h.88a2.29,2.29,0,0,0,2.3-2.3h0v-.22a2.29,2.29,0,0,0-2.3-2.3h-2.3v14.21a.63.63,0,0,1-.63.63.63.63,0,0,1-.63-.63V103.9h3.56a3.54,3.54,0,0,1,3.55,3.55h0v.22a3.55,3.55,0,0,1-2.72,3.46l2.68,8a.62.62,0,0,1-.4.79h0A.43.43,0,0,1,56.28,120Z" transform="translate(-1.74 -2.05)"/><path class="cls-1" d="M44.07,120.16a3.63,3.63,0,0,1-3.62-3.62v-9.19a3.64,3.64,0,0,1,3.62-3.62h.42a3.63,3.63,0,0,1,3.65,3.61h0v9.19a3.62,3.62,0,0,1-3.63,3.62Zm0-14.61a1.82,1.82,0,0,0-1.8,1.8v9.19a1.81,1.81,0,0,0,1.8,1.8h.42a1.79,1.79,0,0,0,1.79-1.8v-9.19a1.8,1.8,0,0,0-1.79-1.8Z" transform="translate(-1.74 -2.05)"/><path class="cls-1" d="M44.49,119.88h-.43a3.34,3.34,0,0,1-3.33-3.34v-9.19A3.34,3.34,0,0,1,44.06,104h.43a3.34,3.34,0,0,1,3.33,3.34v9.19A3.33,3.33,0,0,1,44.49,119.88Zm-.42-14.58A2.09,2.09,0,0,0,42,107.39v9.19a2.08,2.08,0,0,0,2.08,2.08h.42a2.08,2.08,0,0,0,2.08-2.08h0v-9.2a2.1,2.1,0,0,0-2.08-2.08Z" transform="translate(-1.74 -2.05)"/><path class="cls-1" d="M29.05,120.16a.92.92,0,0,1-.91-.86V107.56a2,2,0,0,0-2-2h-2v13.7a.91.91,0,0,1-.91.91.92.92,0,0,1-.91-.91V103.73h3.82A3.82,3.82,0,0,1,30,107.54V119.3a.91.91,0,0,1-.91.91h0Z" transform="translate(-1.74 -2.05)"/><path class="cls-1" d="M29.05,119.88a.63.63,0,0,1-.63-.63V107.56a2.29,2.29,0,0,0-2.28-2.26H23.83v14a.63.63,0,0,1-.54.71.65.65,0,0,1-.71-.55v-.16h0V104h3.56a3.56,3.56,0,0,1,3.55,3.55V119.3a.62.62,0,0,1-.62.63Z" transform="translate(-1.74 -2.05)"/><path class="cls-1" d="M26.14,120.16a.91.91,0,0,1-.91-.91h0V104.87a.92.92,0,0,1,.83-1,.9.9,0,0,1,1,.82.49.49,0,0,1,0,.17V119.3A.9.9,0,0,1,26.14,120.16Z" transform="translate(-1.74 -2.05)"/><path class="cls-1" d="M26.14,119.88a.63.63,0,0,1-.62-.63V104.87a.64.64,0,0,1,.55-.7.62.62,0,0,1,.7.54.43.43,0,0,1,0,.16V119.3A.62.62,0,0,1,26.14,119.88Z" transform="translate(-1.74 -2.05)"/><path class="cls-1" d="M32.28,120.16a.91.91,0,0,1-.91-.91h0V103.73h3.84A3.82,3.82,0,0,1,39,107.54v0a.91.91,0,0,1-1.81,0,2,2,0,0,0-2-2h-2v13.7a.91.91,0,0,1-.91.92Z" transform="translate(-1.74 -2.05)"/><path class="cls-1" d="M32.28,119.88a.63.63,0,0,1-.62-.63V104H35.2a3.56,3.56,0,0,1,3.55,3.55.62.62,0,0,1-.62.63.64.64,0,0,1-.64-.63h0a2.3,2.3,0,0,0-2.29-2.26H32.91v14A.63.63,0,0,1,32.28,119.88Z" transform="translate(-1.74 -2.05)"/><path class="cls-1" d="M32.63,112.86a.91.91,0,0,1,0-1.82h5.51a.92.92,0,0,1,.83,1h0a.92.92,0,0,1-.82.83Z" transform="translate(-1.74 -2.05)"/><path class="cls-1" d="M38.14,112.57h-5.5A.63.63,0,0,1,32,112a.62.62,0,0,1,.58-.66h5.58a.63.63,0,0,1,.66.59.62.62,0,0,1-.59.66Z" transform="translate(-1.74 -2.05)"/><path class="cls-1" d="M59.52,105.55a.91.91,0,0,1-.17-1.82h6a.91.91,0,0,1,0,1.82Z" transform="translate(-1.74 -2.05)"/><path class="cls-1" d="M65.36,105.3H59.52a.63.63,0,0,1-.21-1.24h6a.63.63,0,0,1,.59.66A.61.61,0,0,1,65.36,105.3Z" transform="translate(-1.74 -2.05)"/><path class="cls-1" d="M62.44,120.16a.91.91,0,0,1-.91-.91h0V104.64a.92.92,0,0,1,1.83,0V119.3A.91.91,0,0,1,62.44,120.16Z" transform="translate(-1.74 -2.05)"/><path class="cls-1" d="M62.44,119.88a.63.63,0,0,1-.63-.63V104.64a.64.64,0,0,1,.55-.7.62.62,0,0,1,.7.54.43.43,0,0,1,0,.16h0V119.3A.62.62,0,0,1,62.44,119.88Z" transform="translate(-1.74 -2.05)"/><path class="cls-1" d="M71.52,120.16a3.84,3.84,0,0,1-3.84-3.84V103.73h3.84a3.83,3.83,0,0,1,3.84,3.82h0a.91.91,0,0,1-1.82,0,2,2,0,0,0-2-2h-2V116.3a2,2,0,0,0,4,0,.91.91,0,0,1,.8-1h0a.91.91,0,0,1,1,.82v.18a3.82,3.82,0,0,1-3.79,3.86Z" transform="translate(-1.74 -2.05)"/><path class="cls-1" d="M71.52,119.88A3.56,3.56,0,0,1,68,116.31h0V104h3.55a3.56,3.56,0,0,1,3.55,3.55.63.63,0,0,1-.63.63.63.63,0,0,1-.63-.63,2.3,2.3,0,0,0-2.29-2.26h-2.3v11a2.3,2.3,0,0,0,4.59,0,.63.63,0,0,1,.63-.63.63.63,0,0,1,.63.63h0A3.56,3.56,0,0,1,71.52,119.88Z" transform="translate(-1.74 -2.05)"/><path class="cls-1" d="M69.14,112.86A.91.91,0,0,1,69,111h4.17a.92.92,0,0,1,.83,1h0a.92.92,0,0,1-.82.83Z" transform="translate(-1.74 -2.05)"/><path class="cls-1" d="M73.14,112.57h-4a.63.63,0,0,1-.66-.59.62.62,0,0,1,.58-.66h4.08a.63.63,0,0,1,.66.59.62.62,0,0,1-.59.66Z" transform="translate(-1.74 -2.05)"/><path class="cls-1" d="M83.52,120.16a.91.91,0,0,1-.91-.91h0V107.56a2,2,0,0,0-2-2h-2v13.7a.91.91,0,0,1-.91.91.92.92,0,0,1-.91-.91V103.73h3.84a3.82,3.82,0,0,1,3.83,3.81V119.3a.89.89,0,0,1-.93.86Z" transform="translate(-1.74 -2.05)"/><path class="cls-1" d="M83.52,119.88a.63.63,0,0,1-.63-.63V107.56a2.3,2.3,0,0,0-2.29-2.26H78.3v14a.62.62,0,0,1-1.24.08h0V104H80.6a3.55,3.55,0,0,1,3.54,3.55V119.3A.62.62,0,0,1,83.52,119.88Z" transform="translate(-1.74 -2.05)"/><path class="cls-1" d="M78,112.86A.92.92,0,0,1,77.8,111h5.57a.91.91,0,0,1,1,.81h0a.91.91,0,0,1-.82,1H78Z" transform="translate(-1.74 -2.05)"/><path class="cls-1" d="M83.38,112.57H78a.63.63,0,0,1-.59-.66.64.64,0,0,1,.52-.59h5.47a.63.63,0,0,1,.66.59.62.62,0,0,1-.59.66Z" transform="translate(-1.74 -2.05)"/><path class="cls-2" d="M44.56,3.44h0A42.07,42.07,0,0,1,86.64,45.52V100a.23.23,0,0,1-.23.23H2.7a.23.23,0,0,1-.22-.23V45.5A42.08,42.08,0,0,1,44.56,3.44Z" transform="translate(-1.74 -2.05)"/><path class="cls-3" d="M86.08,89.83V71.72S54.76,69.2,39.79,80.06C39.8,80.06,73.26,83.3,86.08,89.83Z" transform="translate(-1.74 -2.05)"/><path class="cls-4" d="M3.14,77.88s49-1.83,83,11.63l-.08,10.11H3.14Z" transform="translate(-1.74 -2.05)"/><path class="cls-5" d="M29.72,38.82H61.28V61.09c0,4.06-2.83,7.23-6.82,6.81H37a6.65,6.65,0,0,1-7.21-6q0-.39,0-.78Z" transform="translate(-1.74 -2.05)"/><path class="cls-5" d="M32.39,69.2s-8.23.56-5.42,2.27H59.86s2.31-1,0-2.51S32.39,69.2,32.39,69.2Z" transform="translate(-1.74 -2.05)"/><path class="cls-6" d="M17.25,41.79s4-20.87,29-21.48c20.26-.49,25.84,22.35,25.84,22.35S64.5,24.39,46.22,25.23,17.25,41.79,17.25,41.79Z" transform="translate(-1.74 -2.05)"/><path class="cls-7" d="M12.66,73S-7,72.3,12,50C12,50,22.64,68.62,12.66,73Z" transform="translate(-1.74 -2.05)"/><path class="cls-7" d="M80.41,67.61s-13.61-1-.89-18.28C79.52,49.3,90.14,64.83,80.41,67.61Z" transform="translate(-1.74 -2.05)"/><rect class="cls-2" x="43.5" y="53.58" width="5.89" height="9.91"/><path class="cls-1" d="M1.74,101V45.52a42.82,42.82,0,0,1,85.63-1.31c0,.44,0,.87,0,1.31V101Zm84.15-1.48v-54A41.34,41.34,0,1,0,3.22,44.23V99.51Z" transform="translate(-1.74 -2.05)"/><path class="cls-1" d="M87.26,100.88H1.85V45.52a42.71,42.71,0,0,1,85.41-1.31c0,.44,0,.88,0,1.31ZM3.14,99.63H86V45.52A41.46,41.46,0,0,0,3.14,42.64q0,1.44,0,2.88Z" transform="translate(-1.74 -2.05)"/><rect class="cls-1" x="76.1" y="46.3" width="1.48" height="23.49"/><rect class="cls-1" x="76.21" y="46.41" width="1.25" height="23.26"/><path class="cls-1" d="M78.57,68.53h-.11c-.19,0-4.51-.72-6-4.53S72.8,54.81,78,48a.77.77,0,0,1,.59-.29h0a.75.75,0,0,1,.59.37c.26.43,6.25,10.74,3.87,16.7a6.18,6.18,0,0,1-4.3,3.71Zm-.1-18.71c-4.3,5.84-5.92,10.54-4.69,13.62,1.08,2.68,4.08,3.45,4.75,3.59a4.67,4.67,0,0,0,3.17-2.79C83.43,59.9,79.78,52.3,78.47,49.82Z" transform="translate(-1.74 -2.05)"/><path class="cls-1" d="M78.57,68.41h-.1c-.18,0-4.44-.7-6-4.46s.35-9.1,5.55-15.86A.63.63,0,0,1,78.9,48a.8.8,0,0,1,.15.17c.26.44,6.23,10.69,3.86,16.61a6,6,0,0,1-4.22,3.63Zm-.09-18.8c-4.41,5.94-6.07,10.72-4.8,13.87,1.11,2.77,4.19,3.53,4.85,3.66A4.76,4.76,0,0,0,81.8,64.3c1.78-4.45-2-12.16-3.32-14.68Z" transform="translate(-1.74 -2.05)"/><rect class="cls-1" x="76.76" y="52.38" width="1.49" height="5.57" transform="translate(-19.29 49.43) rotate(-33.22)"/><rect class="cls-1" x="76.85" y="52.51" width="1.26" height="5.34" transform="translate(-19.31 49.41) rotate(-33.22)"/><rect class="cls-1" x="75.82" y="55.85" width="1.49" height="8.98" transform="translate(-22.28 49.76) rotate(-33.22)"/><rect class="cls-1" x="75.55" y="55.7" width="1.25" height="8.71" transform="translate(-22.22 49.77) rotate(-33.38)"/><rect class="cls-1" x="77.62" y="56.48" width="5.05" height="1.48" transform="translate(-17.18 78.87) rotate(-49.45)"/><rect class="cls-1" x="77.73" y="56.6" width="4.82" height="1.25" transform="translate(-17.18 78.87) rotate(-49.45)"/><rect class="cls-1" x="77.3" y="61.52" width="6.85" height="1.48" transform="translate(-20.8 81.08) rotate(-49.45)"/><rect class="cls-1" x="77.42" y="61.62" width="6.63" height="1.25" transform="translate(-20.79 81.07) rotate(-49.45)"/><rect class="cls-1" x="10.49" y="46.5" width="1.48" height="31.61"/><rect class="cls-1" x="10.61" y="46.62" width="1.25" height="31.38"/><path class="cls-1" d="M13,73.73h-.11c-.23,0-5.57-.88-7.47-5.58s.44-11.43,7-19.92a.73.73,0,0,1,.59-.3h0a.74.74,0,0,1,.59.36c.33.55,7.83,13.43,4.85,20.86a7.61,7.61,0,0,1-5.27,4.55A.48.48,0,0,1,13,73.73ZM12.86,50c-5.6,7.51-7.72,13.58-6.1,17.57,1.41,3.51,5.31,4.47,6.16,4.64a6.05,6.05,0,0,0,4.16-3.62C19.33,63,14.54,53.15,12.86,50Z" transform="translate(-1.74 -2.05)"/><path class="cls-1" d="M13,73.61h-.09c-.23,0-5.51-.87-7.38-5.51s.46-11.35,7-19.81a.68.68,0,0,1,.54-.24.63.63,0,0,1,.5.31c.32.54,7.79,13.38,4.84,20.75a7.43,7.43,0,0,1-5.23,4.48Zm-.08-23.8C7.14,57.42,5,63.57,6.65,67.63c1.49,3.61,5.49,4.56,6.27,4.72a6.15,6.15,0,0,0,4.22-3.71C19.5,62.84,14.46,52.75,12.88,49.81Z" transform="translate(-1.74 -2.05)"/><rect class="cls-1" x="10.38" y="53.32" width="1.48" height="6.93" transform="translate(-31.15 13.44) rotate(-33.38)"/><rect class="cls-1" x="10.54" y="53.69" width="1.26" height="6.73" transform="translate(-31.17 13.39) rotate(-33.22)"/><rect class="cls-1" x="9.21" y="57.66" width="1.48" height="11.2" transform="translate(-34.9 13.86) rotate(-33.38)"/><rect class="cls-1" x="9.32" y="57.77" width="1.25" height="10.97" transform="translate(-34.9 13.86) rotate(-33.38)"/><rect class="cls-1" x="11.79" y="58.95" width="6.3" height="1.48" transform="translate(-41.87 30.19) rotate(-49.45)"/><rect class="cls-1" x="11.91" y="59.07" width="6.07" height="1.25" transform="translate(-41.87 30.19) rotate(-49.45)"/><rect class="cls-1" x="11.4" y="65.29" width="8.57" height="1.48" transform="translate(-46.42 32.98) rotate(-49.45)"/><rect class="cls-1" x="11.51" y="65.4" width="8.34" height="1.25" transform="translate(-46.42 32.96) rotate(-49.44)"/><path class="cls-1" d="M71.56,44.05a27.36,27.36,0,0,0-53.86-.86v.11L16.24,43V42.9A28.84,28.84,0,0,1,73,43.82v.11l-1.46.23Z" transform="translate(-1.74 -2.05)"/><path class="cls-1" d="M71.67,44a27.46,27.46,0,0,0-54.08-.87l-1.23-.23a28.72,28.72,0,0,1,56.55.9Z" transform="translate(-1.74 -2.05)"/><rect class="cls-1" x="42.09" y="8.44" width="1.48" height="8.29"/><rect class="cls-1" x="42.2" y="8.56" width="1.25" height="8.06"/><rect class="cls-1" x="34.62" y="11.72" width="1.49" height="3.37" transform="translate(-4.01 7.56) rotate(-15)"/><rect class="cls-1" x="34.55" y="11.84" width="1.25" height="3.13" transform="translate(-4.01 7.52) rotate(-15)"/><rect class="cls-1" x="35.73" y="16.5" width="1.48" height="3.36" transform="translate(-5.2 8.01) rotate(-15)"/><rect class="cls-1" x="36" y="16.63" width="1.26" height="3.14" transform="translate(-5.2 8.06) rotate(-15)"/><rect class="cls-1" x="18.21" y="21.1" width="1.48" height="3.36" transform="translate(-12.3 18.03) rotate(-45)"/><rect class="cls-1" x="18.32" y="21.22" width="1.25" height="3.13" transform="translate(-12.3 18.02) rotate(-45)"/><rect class="cls-1" x="21.7" y="24.59" width="1.48" height="3.36" transform="translate(-13.75 21.52) rotate(-45)"/><rect class="cls-1" x="21.81" y="24.71" width="1.25" height="3.13" transform="translate(-13.75 21.52) rotate(-45)"/><rect class="cls-1" x="8.99" y="37.33" width="1.49" height="3.37" transform="translate(-32.21 36.27) rotate(-75)"/><rect class="cls-1" x="8.95" y="37.46" width="1.25" height="3.13" transform="translate(-32.34 36.12) rotate(-75)"/><rect class="cls-1" x="13.6" y="38.62" width="1.48" height="3.36" transform="translate(-30.04 41.67) rotate(-75)"/><rect class="cls-1" x="13.72" y="38.73" width="1.25" height="3.13" transform="translate(-30.03 41.68) rotate(-75)"/><rect class="cls-1" x="77.88" y="38.28" width="3.36" height="1.48" transform="translate(-9.13 19.88) rotate(-15)"/><rect class="cls-1" x="77.99" y="38.4" width="3.13" height="1.25" transform="translate(-9.14 19.9) rotate(-15.02)"/><rect class="cls-1" x="73.11" y="39.56" width="3.36" height="1.48" transform="translate(-9.62 18.68) rotate(-15)"/><rect class="cls-1" x="73.22" y="39.67" width="3.13" height="1.25" transform="translate(-9.63 18.71) rotate(-15.02)"/><rect class="cls-1" x="68.5" y="22.04" width="3.36" height="1.48" transform="translate(2.71 54.25) rotate(-45)"/><rect class="cls-1" x="68.62" y="22.16" width="3.13" height="1.25" transform="translate(2.71 54.26) rotate(-45)"/><rect class="cls-1" x="65.01" y="25.53" width="3.36" height="1.48" transform="translate(-0.78 52.81) rotate(-45)"/><rect class="cls-1" x="65.12" y="25.64" width="3.13" height="1.25" transform="translate(-0.78 52.8) rotate(-45)"/><rect class="cls-1" x="52.27" y="12.66" width="3.36" height="1.48" transform="translate(25.31 60) rotate(-75.01)"/><rect class="cls-1" x="52.38" y="12.79" width="3.13" height="1.25" transform="translate(25.28 60) rotate(-75)"/><rect class="cls-1" x="50.97" y="17.43" width="3.36" height="1.48" transform="translate(19.74 62.27) rotate(-75)"/><rect class="cls-1" x="51.1" y="17.56" width="3.13" height="1.25" transform="translate(19.73 62.3) rotate(-75)"/><rect class="cls-1" x="26.94" y="15.02" width="1.48" height="8.29" transform="translate(-7.62 14.36) rotate(-30)"/><rect class="cls-1" x="27.05" y="15.14" width="1.25" height="8.06" transform="translate(-7.62 14.36) rotate(-30)"/><rect class="cls-1" x="14.58" y="27.38" width="1.48" height="8.29" transform="translate(-21.38 26.98) rotate(-60)"/><rect class="cls-1" x="14.69" y="27.5" width="1.25" height="8.07" transform="translate(-21.39 26.98) rotate(-60)"/><rect class="cls-1" x="69.67" y="30.79" width="8.29" height="1.48" transform="translate(-7.61 39.09) rotate(-30)"/><rect class="cls-1" x="69.79" y="30.91" width="8.06" height="1.25" transform="translate(-7.61 39.09) rotate(-30)"/><rect class="cls-1" x="57.29" y="18.43" width="8.29" height="1.48" transform="translate(12.38 60.75) rotate(-60)"/><rect class="cls-1" x="57.42" y="18.54" width="8.06" height="1.25" transform="translate(12.39 60.75) rotate(-60)"/><path class="cls-1" d="M39.3,80h.11a102.18,102.18,0,0,1,40-8.4,59.35,59.35,0,0,1,7.31.36h.12l-.2,1.47h-.12a60.47,60.47,0,0,0-7.13-.35A100.92,100.92,0,0,0,40,81.3h-.1Z" transform="translate(-1.74 -2.05)"/><path class="cls-1" d="M40,81.23l-.5-1.15c25-10.92,47.05-8.06,47.27-8l-.17,1.22A96.56,96.56,0,0,0,40,81.23Z" transform="translate(-1.74 -2.05)"/><path class="cls-1" d="M59,83.08l.09-.08a37.26,37.26,0,0,1,24.48-9.35,23.24,23.24,0,0,1,3.23.19h.11l-.22,1.46h-.12a23,23,0,0,0-3-.16,35.76,35.76,0,0,0-23.55,9l-.08.08Z" transform="translate(-1.74 -2.05)"/><path class="cls-1" d="M60,84l-.81-.94a37.34,37.34,0,0,1,12.72-7.37A34.07,34.07,0,0,1,86.74,74l-.19,1.24a33.89,33.89,0,0,0-14.3,1.72A36,36,0,0,0,60,84Z" transform="translate(-1.74 -2.05)"/><path class="cls-1" d="M71.34,86l.06-.1A18.91,18.91,0,0,1,86.05,75.52h.09L86.22,77h-.08A17.68,17.68,0,0,0,72.7,86.56v.1Z" transform="translate(-1.74 -2.05)"/><path class="cls-1" d="M72.59,86.5l-1.1-.59c5.17-9.61,14.18-10.26,14.56-10.28l.09,1.25v.05A17.88,17.88,0,0,0,72.59,86.5Z" transform="translate(-1.74 -2.05)"/><path class="cls-1" d="M86.41,91.07c-4.73-1.55-9.62-2.94-14.54-4.14q-3.53-.87-7.15-1.63c-1.81-.37-3.59-.72-5.31-1a241,241,0,0,0-36.27-3.71c-2-.07-4.07-.1-6.41-.12H8.83c-3.91,0-6.23.13-6.26.13H2.46l-.07-1.48H2.5S4.9,79,8.82,79h7.93c2.31,0,4.42,0,6.44.12a242.52,242.52,0,0,1,36.48,3.72c1.72.31,3.52.66,5.35,1,2.43.5,4.85,1,7.2,1.61q7.5,1.82,14.65,4.18H87L86.51,91Z" transform="translate(-1.74 -2.05)"/><path class="cls-1" d="M86.44,91C81.71,89.41,76.82,88,71.9,86.82c-2.34-.58-4.74-1.12-7.14-1.62-1.82-.37-3.61-.72-5.32-1a242.77,242.77,0,0,0-36.3-3.73c-2-.06-4.08-.09-6.41-.11s-4.26,0-5.86,0h-2c-3.91,0-6.24.12-6.26.12L2.51,79.3s2.38-.11,6.31-.13h7.93c2.29,0,4.42,0,6.44.11A245,245,0,0,1,59.65,83c1.72.31,3.52.66,5.35,1,2.42.5,4.84,1,7.19,1.61q7.5,1.81,14.64,4.17Z" transform="translate(-1.74 -2.05)"/><path class="cls-1" d="M18.52,100.23C13.31,89.19,2.89,80.7,2.8,80.62l-.09-.07.93-1.15.09.07c.1.08,10.74,8.73,16.13,20.12l.05.1-1.34.61Z" transform="translate(-1.74 -2.05)"/><path class="cls-1" d="M18.62,100.17C13.39,89.11,3,80.62,2.87,80.53l.79-1c.11.08,10.75,8.75,16.1,20.08Z" transform="translate(-1.74 -2.05)"/><path class="cls-1" d="M34,100.3A49.59,49.59,0,0,0,19.33,85.2c-.93-.63-1.9-1.23-3-1.85a39.31,39.31,0,0,0-5.94-2.9h-.11l.49-1.39h.11a40.26,40.26,0,0,1,6.2,3c1.08.63,2.07,1.25,3,1.9A50.88,50.88,0,0,1,35.21,99.54l.06.1-1.26.78Z" transform="translate(-1.74 -2.05)"/><path class="cls-1" d="M34.06,100.23A49.79,49.79,0,0,0,19.4,85.1c-.94-.62-1.91-1.23-3-1.84a41,41,0,0,0-6-2.91l.42-1.18a40.05,40.05,0,0,1,6.18,3c1.08.63,2.07,1.25,3,1.9A51.28,51.28,0,0,1,35.14,99.59Z" transform="translate(-1.74 -2.05)"/><path class="cls-1" d="M51.73,100.58C48.52,94.19,40,88.72,33.32,85.3a96.17,96.17,0,0,0-10.4-4.7l-.14-.06-.2-.18.49-.53.25-.66h.1A98.53,98.53,0,0,1,34,84c6.83,3.57,15.68,9.23,19,16l0,.11-1.32.66Z" transform="translate(-1.74 -2.05)"/><path class="cls-1" d="M51.83,100.53C48.62,94.11,40,88.62,33.37,85.14A100.36,100.36,0,0,0,23,80.44h-.12l-.1-.14.44-.46.21-.57A101.17,101.17,0,0,1,34,84C40.76,87.6,49.59,93.26,53,100Z" transform="translate(-1.74 -2.05)"/><path class="cls-1" d="M76.61,100.81c-18.33-16.36-35.49-19-35.66-19h-.12l.2-1.46.11,0c.17,0,17.77,2.72,36.43,19.38l.09.08-1,1.1Z" transform="translate(-1.74 -2.05)"/><path class="cls-1" d="M76.69,100.72c-18.35-16.35-35.55-19-35.73-19l.18-1.24c.18,0,17.73,2.72,36.38,19.35Z" transform="translate(-1.74 -2.05)"/><path class="cls-1" d="M8,100.3c0-.49-.66-2.52-6.14-10.84l-.07-.16L3,88.49l.06.1c6.31,9.56,6.36,11.1,6.38,11.6v.12H8Z" transform="translate(-1.74 -2.05)"/><path class="cls-1" d="M8.14,100.3c0-.5-.66-2.56-6.16-10.91l1-.69c6.31,9.52,6.36,11,6.37,11.53Z" transform="translate(-1.74 -2.05)"/><path class="cls-1" d="M26.14,72.82A2.58,2.58,0,0,1,26,67.67H59.74a2.58,2.58,0,0,1,0,5.15Zm0-3.25a.69.69,0,0,0-.64.71.67.67,0,0,0,.64.64h33.6a.68.68,0,0,0,0-1.35Z" transform="translate(-1.74 -2.05)"/><path class="cls-1" d="M59.74,72.7H26.14a2.46,2.46,0,1,1-.42-4.9h34a2.46,2.46,0,0,1,.14,4.91Zm-33.6-3.24a.77.77,0,0,0-.82.73h0a.79.79,0,0,0,.75.83H59.74A.79.79,0,0,0,60,69.47H26.14Z" transform="translate(-1.74 -2.05)"/><path class="cls-1" d="M34.39,69.3a8.18,8.18,0,0,1-8.18-8.18V37.87H60.07V61.09A8.18,8.18,0,0,1,51.9,69.3H34.39Zm-6.25-8.21a6.28,6.28,0,0,0,6.28,6.28h17.5a6.28,6.28,0,0,0,6.22-6.28V39.77h-30Z" transform="translate(-1.74 -2.05)"/><path class="cls-1" d="M51.89,69.16H34.39a8.08,8.08,0,0,1-8.08-8.08h0V38H60V61.09A8.09,8.09,0,0,1,51.89,69.16ZM28,39.65V61.09a6.43,6.43,0,0,0,6.4,6.4H51.89a6.42,6.42,0,0,0,6.4-6.4V39.65Z" transform="translate(-1.74 -2.05)"/><rect class="cls-1" x="45.53" y="36.65" width="1.9" height="17.04"/><rect class="cls-1" x="45.64" y="36.77" width="1.67" height="16.81"/><path class="cls-1" d="M44.28,66.49V54.68h7.79V66.49Zm5.9-1.9v-8h-4v8Z" transform="translate(-1.74 -2.05)"/><path class="cls-1" d="M52,66.37H44.4V54.8H52Zm-5.9-1.67h4.23V56.46H46.07Z" transform="translate(-1.74 -2.05)"/><path class="cls-1" d="M65.53,56.46V45.87a6.1,6.1,0,0,0-6.1-6.1h-.11v-1.9h.11a8,8,0,0,1,8,8V56.46Z" transform="translate(-1.74 -2.05)"/><path class="cls-1" d="M67.31,56.35H65.65V45.87a6.23,6.23,0,0,0-6.22-6.22V38a7.9,7.9,0,0,1,7.88,7.88Z" transform="translate(-1.74 -2.05)"/></svg>